<?xml version="1.0" encoding="UTF-8" standalone="no"?>
<!-- Created with Inkscape (http://www.inkscape.org/) -->

<svg
   version="1.1"
   id="svg233"
   width="189.0173"
   height="204.04562"
   viewBox="0 0 189.0173 204.04562"
   sodipodi:docname="codigo minimo.PNG"
   xmlns:inkscape="http://www.inkscape.org/namespaces/inkscape"
   xmlns:sodipodi="http://sodipodi.sourceforge.net/DTD/sodipodi-0.dtd"
   xmlns="http://www.w3.org/2000/svg"
   xmlns:svg="http://www.w3.org/2000/svg">
  <defs
     id="defs237" />
  <sodipodi:namedview
     id="namedview235"
     pagecolor="#ffffff"
     bordercolor="#000000"
     borderopacity="0.25"
     inkscape:showpageshadow="2"
     inkscape:pageopacity="0.0"
     inkscape:pagecheckerboard="0"
     inkscape:deskcolor="#d1d1d1"
     showgrid="false" />
  <g
     inkscape:groupmode="layer"
     inkscape:label="Image"
     id="g239"
     transform="translate(288.88855,-9.2692041)">
    <g
       id="g426">
      <g
         id="g280"
         transform="translate(-41.404615,-11.19629)">
        <path
           style="fill:#000000;stroke-width:0.666667"
           d="m -140.28112,165.86133 c -0.009,-0.0641 -0.7368,-2.21647 -1.61631,-4.78313 -0.87951,-2.56667 -1.39677,-4.87217 -1.14946,-5.12333 0.53735,-0.54573 37.09281,-18.76447 40.54269,-20.20591 1.32172,-0.55226 3.52172,-1.0041 4.8889,-1.0041 2.61739,0 6.69391,1.16007 6.67158,1.89856 -0.007,0.23912 -1.73222,1.44794 -3.83333,2.68625 -24.466,14.41931 -45.48309,26.67357 -45.50407,26.53166 z"
           id="path248" />
        <path
           style="fill:#000000;stroke-width:0.666667"
           d="m -163.59724,222.0221 c -3.85,-1.51832 -13,-5.11324 -20.33333,-7.98873 -7.33333,-2.87549 -17.98333,-7.09257 -23.66667,-9.37131 l -10.33333,-4.14317 -14.66667,-0.38701 -14.66666,-0.38702 -0.17347,-29.74606 c -0.13591,-23.30495 0.008,-29.88555 0.66666,-30.39027 0.46208,-0.35432 3.84014,-1.15224 7.50681,-1.77315 23.50005,-3.97948 34.66682,-5.75718 36.16428,-5.75718 1.77483,0 6.62552,2.10272 24.08292,10.43968 5.63596,2.6915 10.35087,4.89365 10.47758,4.89365 0.12672,0 4.21548,1.94574 9.08614,4.32387 9.97032,4.86806 11.96631,6.77444 13.16418,12.57314 1.32969,6.43685 -1.37601,12.59308 -6.9751,15.87032 -2.13989,1.25252 -3.58854,1.5517 -7.33334,1.51456 -4.41284,-0.0437 -5.22871,-0.32016 -15,-5.08146 -15.43765,-7.52238 -20.58978,-9.8671 -21.68129,-9.8671 -1.04556,0 -1.37364,3.04562 -0.47516,4.41096 0.26938,0.40937 3.03979,1.95159 6.15645,3.42716 3.11667,1.47558 9.72601,4.6364 14.68743,7.02406 4.96141,2.38765 10.36141,4.70256 12,5.14425 3.73801,1.00759 9.08197,0.42217 13.01277,-1.42553 3.51535,-1.6524 8.56744,-7.01849 9.62514,-10.22334 0.66505,-2.0151 2.14856,-3.08249 13.54409,-9.74489 7.03848,-4.11505 19.54724,-11.44867 27.79724,-16.29691 19.05953,-11.20064 20.9805,-12.14899 26.47283,-13.06911 8.11376,-1.35928 13.03147,1.38073 15.30536,8.5277 2.2767,7.15585 -0.76935,11.98537 -14.38811,22.81242 -16.60493,13.20108 -44.01037,34.08151 -59.72341,45.50377 -18.12864,13.17822 -19.30708,13.53512 -30.33334,9.1867 z"
           id="path243" />
      </g>
      <text
         xml:space="preserve"
         style="font-size:32px;fill:#000000"
         x="-254.73195"
         y="32.469204"
         id="text336"><tspan
           sodipodi:role="line"
           x="-254.73195"
           y="32.469204"
           id="tspan399"
           style="font-size:32px"><tspan
             dy="0"
             id="tspan403"
             style="font-size:32px">1 0 1 0 1</tspan></tspan></text>
      <text
         xml:space="preserve"
         style="font-size:32px;fill:#000000"
         x="-256.77994"
         y="65.91291"
         id="text407"><tspan
           sodipodi:role="line"
           id="tspan405"
           x="-256.77994"
           y="65.91291">0 1 0 1 0</tspan></text>
      <text
         xml:space="preserve"
         style="font-size:32px;fill:#000000"
         x="-254.73195"
         y="99.356606"
         id="text413"><tspan
           sodipodi:role="line"
           x="-254.73195"
           y="99.356606"
           id="tspan411"
           style="font-size:32px"><tspan
             dy="0"
             id="tspan409"
             style="font-size:32px">1 0 1 0 1</tspan></tspan></text>
    </g>
  </g>
</svg>
