<?xml version="1.0" encoding="UTF-8" standalone="no"?>
<!-- Created with Inkscape (http://www.inkscape.org/) -->

<svg
   version="1.1"
   id="svg42"
   width="399.83331"
   height="511.1297"
   viewBox="0 0 399.83331 511.1297"
   sodipodi:docname="a fazer.png"
   xmlns:inkscape="http://www.inkscape.org/namespaces/inkscape"
   xmlns:sodipodi="http://sodipodi.sourceforge.net/DTD/sodipodi-0.dtd"
   xmlns="http://www.w3.org/2000/svg"
   xmlns:svg="http://www.w3.org/2000/svg">
  <defs
     id="defs46" />
  <sodipodi:namedview
     id="namedview44"
     pagecolor="#ffffff"
     bordercolor="#000000"
     borderopacity="0.25"
     inkscape:showpageshadow="2"
     inkscape:pageopacity="0.0"
     inkscape:pagecheckerboard="0"
     inkscape:deskcolor="#d1d1d1"
     showgrid="false" />
  <g
     inkscape:groupmode="layer"
     inkscape:label="Image"
     id="g48"
     transform="translate(-735.74481,-232.03253)">
    <path
       style="fill:#000000"
       d="m 768.66502,742.79515 c -5.36123,-1.0155 -15.14817,-6.32445 -19.96512,-10.83014 -6.41535,-6.00082 -10.91394,-14.96141 -12.0889,-24.0795 -1.14038,-8.84975 -1.16177,-399.70543 -0.0224,-408.5387 2.38386,-18.48088 16.3438,-32.50434 34.71349,-34.87146 3.77273,-0.48616 24.36285,-0.89864 45.75582,-0.91664 l 38.89629,-0.0327 4.88564,-4.56994 c 8.98036,-8.40008 18.83028,-11.32664 38.36001,-11.39734 l 9.03824,-0.0327 3.59148,-4.29657 c 1.97532,-2.36311 6.45811,-5.84915 9.96176,-7.74675 5.65106,-3.06065 7.21705,-3.45018 13.87028,-3.45018 6.65323,0 8.21922,0.38953 13.87028,3.45018 3.50365,1.8976 7.98644,5.38364 9.96176,7.74675 l 3.59148,4.29657 9.03824,0.0327 c 19.52973,0.0707 29.37963,2.99726 38.36003,11.39734 l 4.8856,4.56994 38.8963,0.0327 c 21.393,0.018 41.9019,0.42042 45.5755,0.89427 18.4809,2.38387 32.5043,16.3438 34.8715,34.7135 1.1544,8.95921 1.1544,399.75981 0,408.71903 -1.8097,14.04355 -10.4709,25.65636 -23.8477,31.9745 l -6.703,3.16598 -166.49999,0.12103 c -91.575,0.0666 -167.62349,-0.0918 -168.99663,-0.35187 z m 340.13268,-18.79709 c 2.3695,-1.66536 5.6707,-4.96662 7.336,-7.33614 l 3.028,-4.30821 V 503.52599 294.69828 l -3.028,-4.30822 c -1.6653,-2.36952 -4.9662,-5.67078 -7.3352,-7.33614 l -4.3073,-3.02793 h -40.6116 -40.6116 l -0.053,21.22047 c -0.052,20.71468 -0.1075,21.27481 -2.331,23.5 l -2.2777,2.27953 h -82.94445 -82.94444 l -2.27778,-2.27953 c -2.22349,-2.22519 -2.27905,-2.78532 -2.33096,-23.5 l -0.0532,-21.22047 h -40.61162 -40.61162 l -4.30728,3.02793 c -2.369,1.66536 -5.66985,4.96659 -7.33521,7.33607 l -3.02792,4.30814 -0.29361,206.66393 c -0.19702,138.68089 0.0427,207.83015 0.72879,210.20915 1.39158,4.82541 7.12206,11.27812 12.29482,13.84437 l 4.27,2.11838 167.66397,-0.25399 167.66401,-0.25398 z M 774.5156,710.8272 c -1.45533,-0.22769 -3.48033,-1.33586 -4.5,-2.46259 -1.79245,-1.98063 -1.85395,-8.7789 -1.85395,-204.91583 V 300.58155 l 2.27777,-2.27778 c 2.25733,-2.25733 2.51895,-2.27778 29.14502,-2.27778 25.01724,0 27.01218,0.13117 28.97222,1.90499 2.861,2.58916 2.86191,8.59948 0.002,11.19002 -1.90326,1.72382 -4.13822,1.93694 -23.5,2.24093 l -21.39701,0.33593 v 191.91407 191.91406 h 152 152.00005 V 503.61193 311.69786 l -21.3968,-0.33593 c -19.3617,-0.30399 -21.5967,-0.51711 -23.5,-2.24093 -2.8602,-2.59054 -2.8593,-8.60086 0,-11.19002 1.9598,-1.77382 3.9547,-1.90499 28.972,-1.90499 26.626,0 26.8876,0.0205 29.145,2.27778 l 2.2778,2.27778 v 202.94444 202.94444 l -2.2777,2.27778 -2.2777,2.27778 -160.7223,0.1076 c -88.39729,0.0592 -161.91308,-0.0787 -163.3684,-0.30639 z m 47.88265,-94.06415 c -12.5308,-12.55484 -13.7366,-14.07738 -13.7366,-17.34502 0,-4.4696 2.495,-6.89204 7.09849,-6.89204 3.01598,0 4.60957,1.17344 12.90151,9.5 5.20327,5.225 10.14921,9.5 10.99097,9.5 0.84175,0 9.39582,-7.875 19.00903,-17.5 16.17961,-16.19945 17.74654,-17.5 21.0843,-17.5 4.49119,0 6.9157,2.48465 6.9157,7.08726 0,3.13514 -1.8692,5.29754 -21.75834,25.17126 -20.0638,20.04826 -22.03131,21.74148 -25.26339,21.74148 -3.17158,0 -4.81202,-1.30947 -17.24167,-13.76294 z m 96.2634,-9.94805 c -3.97967,-0.75034 -6,-3.20471 -6,-7.28901 0,-2.48138 0.68948,-4.31399 2.10499,-5.59501 2.02826,-1.83556 4.68521,-1.90499 72.89501,-1.90499 68.20985,0 70.86675,0.0694 72.89505,1.90499 2.8616,2.58975 2.8619,8.59979 6e-4,11.19002 -2.0234,1.83163 -4.7478,1.91 -70.75005,2.03518 -37.75508,0.0716 -69.7706,-0.0819 -71.1456,-0.34118 z m -96.2634,-78.05195 c -12.5308,-12.55484 -13.7366,-14.07738 -13.7366,-17.34502 0,-4.4696 2.495,-6.89204 7.09849,-6.89204 3.01598,0 4.60957,1.17344 12.90151,9.5 5.20327,5.225 10.14921,9.5 10.99097,9.5 0.84175,0 9.39582,-7.875 19.00903,-17.5 16.17961,-16.19945 17.74654,-17.5 21.0843,-17.5 4.49119,0 6.9157,2.48465 6.9157,7.08726 0,3.13514 -1.8692,5.29754 -21.75834,25.17126 -20.0638,20.04826 -22.03131,21.74148 -25.26339,21.74148 -3.17158,0 -4.81202,-1.30947 -17.24167,-13.76294 z m 96.2634,-9.94805 c -3.97967,-0.75034 -6,-3.20471 -6,-7.28901 0,-2.48138 0.68948,-4.31399 2.10499,-5.59501 2.02826,-1.83556 4.68521,-1.90499 72.89501,-1.90499 68.20985,0 70.86675,0.0694 72.89505,1.90499 2.8616,2.58975 2.8619,8.59979 6e-4,11.19002 -2.0234,1.83163 -4.7478,1.91 -70.75005,2.03518 -37.75508,0.0716 -69.7706,-0.0819 -71.1456,-0.34118 z m -96.2634,-78.05195 c -12.5308,-12.55484 -13.7366,-14.07738 -13.7366,-17.34502 0,-4.4696 2.495,-6.89204 7.09849,-6.89204 3.01598,0 4.60957,1.17344 12.90151,9.5 5.20327,5.225 10.14921,9.5 10.99097,9.5 0.84175,0 9.39582,-7.875 19.00903,-17.5 16.17961,-16.19945 17.74654,-17.5 21.0843,-17.5 4.49119,0 6.9157,2.48465 6.9157,7.08726 0,3.13514 -1.8692,5.29754 -21.75834,25.17126 -20.0638,20.04826 -22.03131,21.74148 -25.26339,21.74148 -3.17158,0 -4.81202,-1.30947 -17.24167,-13.76294 z m 96.2634,-9.94805 c -3.97967,-0.75034 -6,-3.20471 -6,-7.28901 0,-2.48138 0.68948,-4.31399 2.10499,-5.59501 2.02826,-1.83556 4.68521,-1.90499 72.89501,-1.90499 68.20985,0 70.86675,0.0694 72.89505,1.90499 2.8616,2.58975 2.8619,8.59979 6e-4,11.19002 -2.0234,1.83163 -4.7478,1.91 -70.75005,2.03518 -37.75508,0.0716 -69.7706,-0.0819 -71.1456,-0.34118 z m 88.81725,-135.70694 -0.3173,-16.41793 -3.0279,-4.30414 c -1.6653,-2.36728 -4.96514,-5.66671 -7.33288,-7.33207 l -4.30497,-3.02793 -18.31317,-0.5 c -20.49943,-0.55969 -20.26873,-0.48103 -24.978,-8.51678 -5.93507,-10.12744 -21.15099,-10.12744 -27.08606,0 -4.70927,8.03575 -4.47857,7.95709 -24.978,8.51678 l -18.31317,0.5 -4.30497,3.02793 c -2.36774,1.66536 -5.66754,4.96479 -7.3329,7.33207 l -3.02793,4.30414 -0.3173,16.41793 -0.3173,16.41793 h 72.1346 72.13455 z m -77.16226,-18.41081 c -2.2366,-2.47142 -2.13825,-8.42394 0.17375,-10.51627 2.47142,-2.2366 8.42394,-2.13825 10.51627,0.17375 2.2366,2.47142 2.13825,8.42394 -0.17375,10.51627 -2.47142,2.23661 -8.42394,2.13826 -10.51627,-0.17375 z"
       id="path210" />
  </g>
</svg>
